<mxfile host="app.diagrams.net" agent="Mozilla/5.0 (Windows NT 10.0; Win64; x64; rv:136.0) Gecko/20100101 Firefox/136.0" version="26.1.0">
  <diagram name="Page-1" id="mbjbCVjUmtGmrmKF8iUb">
    <mxGraphModel dx="1195" dy="685" grid="1" gridSize="10" guides="1" tooltips="1" connect="1" arrows="1" fold="1" page="1" pageScale="1" pageWidth="850" pageHeight="1100" math="0" shadow="0">
      <root>
        <mxCell id="0" />
        <mxCell id="1" parent="0" />
        <mxCell id="8aT4Ja42kQLnV3SQWfkH-2" value="Mengupload Sampah" style="swimlane;childLayout=stackLayout;resizeParent=1;resizeParentMax=0;startSize=20;html=1;" vertex="1" parent="1">
          <mxGeometry x="160.00000000000045" width="420" height="700" as="geometry" />
        </mxCell>
        <mxCell id="8aT4Ja42kQLnV3SQWfkH-3" value="Pelanggan" style="swimlane;startSize=20;html=1;" vertex="1" parent="8aT4Ja42kQLnV3SQWfkH-2">
          <mxGeometry y="20" width="210" height="680" as="geometry" />
        </mxCell>
        <mxCell id="8aT4Ja42kQLnV3SQWfkH-4" value="Sistem" style="swimlane;startSize=20;html=1;" vertex="1" parent="8aT4Ja42kQLnV3SQWfkH-2">
          <mxGeometry x="210" y="20" width="210" height="680" as="geometry" />
        </mxCell>
        <mxCell id="8aT4Ja42kQLnV3SQWfkH-6" value="" style="ellipse;whiteSpace=wrap;html=1;aspect=fixed;" vertex="1" parent="8aT4Ja42kQLnV3SQWfkH-4">
          <mxGeometry x="-122.51000000000045" y="60" width="35" height="35" as="geometry" />
        </mxCell>
        <mxCell id="8aT4Ja42kQLnV3SQWfkH-18" style="edgeStyle=orthogonalEdgeStyle;rounded=0;orthogonalLoop=1;jettySize=auto;html=1;entryX=0.5;entryY=0;entryDx=0;entryDy=0;" edge="1" parent="8aT4Ja42kQLnV3SQWfkH-4" source="8aT4Ja42kQLnV3SQWfkH-6" target="8aT4Ja42kQLnV3SQWfkH-17">
          <mxGeometry relative="1" as="geometry" />
        </mxCell>
        <mxCell id="8aT4Ja42kQLnV3SQWfkH-17" value="Masuk kedalam Sistem" style="whiteSpace=wrap;html=1;" vertex="1" parent="8aT4Ja42kQLnV3SQWfkH-4">
          <mxGeometry x="-180" y="140" width="150" height="35" as="geometry" />
        </mxCell>
        <mxCell id="8aT4Ja42kQLnV3SQWfkH-20" value="" style="edgeStyle=orthogonalEdgeStyle;rounded=0;orthogonalLoop=1;jettySize=auto;html=1;" edge="1" parent="8aT4Ja42kQLnV3SQWfkH-4" source="8aT4Ja42kQLnV3SQWfkH-17" target="8aT4Ja42kQLnV3SQWfkH-19">
          <mxGeometry relative="1" as="geometry" />
        </mxCell>
        <mxCell id="8aT4Ja42kQLnV3SQWfkH-19" value="Menampilkan sudah memiliki akun/belum" style="whiteSpace=wrap;html=1;" vertex="1" parent="8aT4Ja42kQLnV3SQWfkH-4">
          <mxGeometry x="30" y="140" width="150" height="35" as="geometry" />
        </mxCell>
        <mxCell id="8aT4Ja42kQLnV3SQWfkH-22" style="edgeStyle=orthogonalEdgeStyle;rounded=0;orthogonalLoop=1;jettySize=auto;html=1;entryX=0.5;entryY=0;entryDx=0;entryDy=0;" edge="1" parent="8aT4Ja42kQLnV3SQWfkH-4" source="8aT4Ja42kQLnV3SQWfkH-19" target="8aT4Ja42kQLnV3SQWfkH-21">
          <mxGeometry relative="1" as="geometry" />
        </mxCell>
        <mxCell id="8aT4Ja42kQLnV3SQWfkH-21" value="" style="rhombus;whiteSpace=wrap;html=1;" vertex="1" parent="8aT4Ja42kQLnV3SQWfkH-4">
          <mxGeometry x="87.50000000000001" y="230" width="35" height="35" as="geometry" />
        </mxCell>
        <mxCell id="8aT4Ja42kQLnV3SQWfkH-25" style="edgeStyle=orthogonalEdgeStyle;rounded=0;orthogonalLoop=1;jettySize=auto;html=1;entryX=1;entryY=0.5;entryDx=0;entryDy=0;" edge="1" parent="8aT4Ja42kQLnV3SQWfkH-4" source="8aT4Ja42kQLnV3SQWfkH-21" target="8aT4Ja42kQLnV3SQWfkH-24">
          <mxGeometry relative="1" as="geometry" />
        </mxCell>
        <mxCell id="8aT4Ja42kQLnV3SQWfkH-24" value="Registrasi kedalam sistem" style="whiteSpace=wrap;html=1;" vertex="1" parent="8aT4Ja42kQLnV3SQWfkH-4">
          <mxGeometry x="-175" y="230" width="140" height="35" as="geometry" />
        </mxCell>
        <mxCell id="8aT4Ja42kQLnV3SQWfkH-26" style="edgeStyle=orthogonalEdgeStyle;rounded=0;orthogonalLoop=1;jettySize=auto;html=1;entryX=0.5;entryY=0;entryDx=0;entryDy=0;" edge="1" parent="8aT4Ja42kQLnV3SQWfkH-4" source="8aT4Ja42kQLnV3SQWfkH-24" target="8aT4Ja42kQLnV3SQWfkH-7">
          <mxGeometry relative="1" as="geometry" />
        </mxCell>
        <mxCell id="8aT4Ja42kQLnV3SQWfkH-23" style="edgeStyle=orthogonalEdgeStyle;rounded=0;orthogonalLoop=1;jettySize=auto;html=1;exitX=0.5;exitY=1;exitDx=0;exitDy=0;entryX=0.5;entryY=0;entryDx=0;entryDy=0;" edge="1" parent="8aT4Ja42kQLnV3SQWfkH-4" source="8aT4Ja42kQLnV3SQWfkH-21" target="8aT4Ja42kQLnV3SQWfkH-7">
          <mxGeometry relative="1" as="geometry" />
        </mxCell>
        <mxCell id="8aT4Ja42kQLnV3SQWfkH-7" value="Login kedalam sistem" style="whiteSpace=wrap;html=1;" vertex="1" parent="8aT4Ja42kQLnV3SQWfkH-4">
          <mxGeometry x="-175" y="340" width="140" height="35" as="geometry" />
        </mxCell>
        <mxCell id="8aT4Ja42kQLnV3SQWfkH-10" value="" style="edgeStyle=orthogonalEdgeStyle;rounded=0;orthogonalLoop=1;jettySize=auto;html=1;" edge="1" parent="8aT4Ja42kQLnV3SQWfkH-4" source="8aT4Ja42kQLnV3SQWfkH-7" target="8aT4Ja42kQLnV3SQWfkH-9">
          <mxGeometry relative="1" as="geometry" />
        </mxCell>
        <mxCell id="8aT4Ja42kQLnV3SQWfkH-9" value="Memverifikasi Login dari User" style="whiteSpace=wrap;html=1;" vertex="1" parent="8aT4Ja42kQLnV3SQWfkH-4">
          <mxGeometry x="30" y="340" width="150" height="35" as="geometry" />
        </mxCell>
        <mxCell id="8aT4Ja42kQLnV3SQWfkH-12" value="" style="edgeStyle=orthogonalEdgeStyle;rounded=0;orthogonalLoop=1;jettySize=auto;html=1;" edge="1" parent="8aT4Ja42kQLnV3SQWfkH-4" source="8aT4Ja42kQLnV3SQWfkH-9" target="8aT4Ja42kQLnV3SQWfkH-11">
          <mxGeometry relative="1" as="geometry" />
        </mxCell>
        <mxCell id="8aT4Ja42kQLnV3SQWfkH-11" value="" style="rhombus;whiteSpace=wrap;html=1;" vertex="1" parent="8aT4Ja42kQLnV3SQWfkH-4">
          <mxGeometry x="87.50000000000001" y="410" width="35" height="35" as="geometry" />
        </mxCell>
        <mxCell id="8aT4Ja42kQLnV3SQWfkH-16" style="edgeStyle=orthogonalEdgeStyle;rounded=0;orthogonalLoop=1;jettySize=auto;html=1;entryX=0.5;entryY=0;entryDx=0;entryDy=0;" edge="1" parent="8aT4Ja42kQLnV3SQWfkH-4" source="8aT4Ja42kQLnV3SQWfkH-11" target="8aT4Ja42kQLnV3SQWfkH-15">
          <mxGeometry relative="1" as="geometry" />
        </mxCell>
        <mxCell id="8aT4Ja42kQLnV3SQWfkH-15" value="Menampilkan Homepage" style="whiteSpace=wrap;html=1;" vertex="1" parent="8aT4Ja42kQLnV3SQWfkH-4">
          <mxGeometry x="30" y="480" width="150" height="35" as="geometry" />
        </mxCell>
      </root>
    </mxGraphModel>
  </diagram>
</mxfile>
